<svg width="25" height="25" viewBox="0 0 25 25" fill="none" xmlns="http://www.w3.org/2000/svg">
<g clip-path="url(#clip0_42_2193)">
<path fill-rule="evenodd" clip-rule="evenodd" d="M7.79101 0.454324C9.07065 0.395415 9.47864 0.382324 12.7383 0.382324C15.9979 0.382324 16.4059 0.396506 17.6845 0.454324C18.963 0.512142 19.8357 0.716142 20.5994 1.01178C21.399 1.31396 22.1245 1.78632 22.7245 2.39723C23.3354 2.99614 23.8066 3.72051 24.1077 4.52123C24.4045 5.28487 24.6074 6.1576 24.6663 7.43396C24.7252 8.71578 24.7383 9.12378 24.7383 12.3823C24.7383 15.642 24.7241 16.05 24.6663 17.3296C24.6085 18.606 24.4045 19.4787 24.1077 20.2423C23.8066 21.0432 23.3346 21.7687 22.7245 22.3685C22.1245 22.9794 21.399 23.4507 20.5994 23.7518C19.8357 24.0485 18.963 24.2514 17.6866 24.3103C16.4059 24.3692 15.9979 24.3823 12.7383 24.3823C9.47864 24.3823 9.07065 24.3681 7.79101 24.3103C6.51465 24.2525 5.64192 24.0485 4.87828 23.7518C4.07747 23.4506 3.3519 22.9786 2.7521 22.3685C2.1416 21.7692 1.66917 21.044 1.36774 20.2434C1.0721 19.4798 0.86919 18.607 0.810281 17.3307C0.751372 16.0489 0.738281 15.6409 0.738281 12.3823C0.738281 9.12269 0.752463 8.71469 0.810281 7.43614C0.868099 6.1576 1.0721 5.28487 1.36774 4.52123C1.66962 3.72059 2.14241 2.99539 2.75319 2.39614C3.35214 1.78578 4.07698 1.31335 4.87719 1.01178C5.64083 0.716142 6.51355 0.513233 7.78992 0.454324H7.79101ZM17.5874 2.61432C16.3219 2.55651 15.9423 2.54451 12.7383 2.54451C9.53428 2.54451 9.15464 2.55651 7.88919 2.61432C6.71864 2.66778 6.08374 2.86305 5.66046 3.02778C5.10083 3.24596 4.70046 3.50451 4.28046 3.92451C3.88233 4.31183 3.57593 4.78336 3.38374 5.30451C3.21901 5.72778 3.02374 6.36269 2.97028 7.53323C2.91246 8.79869 2.90046 9.17832 2.90046 12.3823C2.90046 15.5863 2.91246 15.966 2.97028 17.2314C3.02374 18.402 3.21901 19.0369 3.38374 19.4601C3.57574 19.9805 3.88228 20.4529 4.28046 20.8401C4.66774 21.2383 5.1401 21.5449 5.66046 21.7369C6.08374 21.9016 6.71864 22.0969 7.88919 22.1503C9.15464 22.2081 9.53319 22.2201 12.7383 22.2201C15.9434 22.2201 16.3219 22.2081 17.5874 22.1503C18.7579 22.0969 19.3928 21.9016 19.8161 21.7369C20.3757 21.5187 20.7761 21.2601 21.1961 20.8401C21.5943 20.4529 21.9008 19.9805 22.0928 19.4601C22.2576 19.0369 22.4528 18.402 22.5063 17.2314C22.5641 15.966 22.5761 15.5863 22.5761 12.3823C22.5761 9.17832 22.5641 8.79869 22.5063 7.53323C22.4528 6.36269 22.2576 5.72778 22.0928 5.30451C21.8746 4.74487 21.6161 4.34451 21.1961 3.92451C20.8087 3.5264 20.3372 3.22001 19.8161 3.02778C19.3928 2.86305 18.7579 2.66778 17.5874 2.61432ZM11.2056 16.0816C12.0615 16.4379 13.0147 16.486 13.9022 16.2177C14.7897 15.9493 15.5565 15.3811 16.0717 14.6102C16.5868 13.8393 16.8183 12.9135 16.7267 11.9908C16.635 11.0681 16.2259 10.2059 15.5692 9.55141C15.1505 9.13303 14.6443 8.81266 14.087 8.61339C13.5297 8.41412 12.9351 8.3409 12.3461 8.399C11.7571 8.45709 11.1883 8.64506 10.6806 8.94938C10.173 9.25369 9.73909 9.66677 9.41025 10.1589C9.0814 10.651 8.86576 11.2099 8.77884 11.7954C8.69193 12.3808 8.7359 12.9783 8.9076 13.5447C9.07929 14.1111 9.37444 14.6324 9.77179 15.0711C10.1691 15.5098 10.6588 15.8549 11.2056 16.0816ZM8.37683 8.02087C8.94958 7.44811 9.62954 6.99378 10.3779 6.68381C11.1262 6.37384 11.9283 6.2143 12.7383 6.2143C13.5483 6.2143 14.3503 6.37384 15.0987 6.68381C15.847 6.99378 16.527 7.44811 17.0997 8.02087C17.6725 8.59362 18.1268 9.27358 18.4368 10.0219C18.7468 10.7703 18.9063 11.5723 18.9063 12.3823C18.9063 13.1923 18.7468 13.9944 18.4368 14.7427C18.1268 15.4911 17.6725 16.171 17.0997 16.7438C15.943 17.9005 14.3741 18.5504 12.7383 18.5504C11.1024 18.5504 9.53356 17.9005 8.37683 16.7438C7.2201 15.587 6.57025 14.0182 6.57025 12.3823C6.57025 10.7465 7.2201 9.1776 8.37683 8.02087ZM20.2743 7.13287C20.4162 6.99898 20.5298 6.83798 20.6084 6.65939C20.687 6.4808 20.729 6.28825 20.7318 6.09316C20.7347 5.89806 20.6983 5.70438 20.625 5.52357C20.5516 5.34277 20.4428 5.17852 20.3048 5.04055C20.1668 4.90258 20.0026 4.7937 19.8218 4.72034C19.641 4.64699 19.4473 4.61066 19.2522 4.61351C19.0571 4.61635 18.8645 4.65831 18.6859 4.7369C18.5074 4.81549 18.3463 4.92912 18.2125 5.07105C17.9521 5.34708 17.8095 5.71373 17.815 6.09316C17.8206 6.47258 17.9738 6.83492 18.2421 7.10324C18.5104 7.37157 18.8727 7.52475 19.2522 7.53029C19.6316 7.53582 19.9982 7.39326 20.2743 7.13287Z" fill="white"/>
</g>
<defs>
<clipPath id="clip0_42_2193">
<rect width="24" height="24" fill="white" transform="translate(0.738281 0.382324)"/>
</clipPath>
</defs>
</svg>
