<svg width="104" height="21" viewBox="0 0 104 21" fill="none" xmlns="http://www.w3.org/2000/svg">
<path d="M0.0548706 3.22688L1.14397 2.19829H14.4854L15.5443 3.22688H0.0548706Z" fill="url(#paint0_linear_123_609)"/>
<path d="M0.0548706 3.22688L0.0548717 1.19995L1.14397 2.19829L0.0548706 3.22688Z" fill="url(#paint1_linear_123_609)"/>
<path d="M15.5443 3.22688L15.5443 1.19995L14.4854 2.19829L15.5443 3.22688Z" fill="url(#paint2_linear_123_609)"/>
<path d="M0.0548717 1.19995L1.14397 2.19829H14.4854L15.5443 1.19995H0.0548717Z" fill="url(#paint3_linear_123_609)"/>
<path d="M8.61623 20.7431L6.86157 20.7733L7.7389 19.6842L8.61623 20.7431Z" fill="url(#paint4_linear_123_609)"/>
<path d="M8.64649 3.22681H6.86157L7.76916 4.19489L8.64649 3.22681Z" fill="url(#paint5_linear_123_609)"/>
<path d="M6.86157 20.7733L7.7389 19.6842L7.76916 4.19489L6.89183 3.25706L6.86157 20.7733Z" fill="url(#paint6_linear_123_609)"/>
<path d="M8.61623 20.7431L7.7389 19.6842L7.76916 4.19489L8.61623 3.25706L8.61623 20.7431Z" fill="url(#paint7_linear_123_609)"/>
<path d="M23.289 1.30005H25.8L25.2857 2.75218H23.8033L23.289 1.30005Z" fill="#B79843"/>
<path d="M25.2857 2.75218L25.8 1.30005L33.5145 20.813L31.5783 19.3306L25.2857 2.75218Z" fill="url(#paint8_linear_123_609)"/>
<path d="M23.7731 2.75218L23.2588 1.30005L15.5443 20.813L17.4805 19.3306L23.7731 2.75218Z" fill="url(#paint9_linear_123_609)"/>
<path d="M31.064 20.813L31.5783 19.3306L25.2857 2.75218H23.8033L17.4805 19.3306L17.9948 20.813L24.5294 3.78077L31.064 20.813Z" fill="url(#paint10_linear_123_609)"/>
<path d="M31.064 20.813L31.5783 19.3306L33.5145 20.813H31.064Z" fill="url(#paint11_linear_123_609)"/>
<path d="M17.9948 20.813L17.4805 19.3306L15.5443 20.813H17.9948Z" fill="url(#paint12_linear_123_609)"/>
<path d="M33.7144 6.53924C34.1379 2.78791 36.5884 1.24503 40.1885 1.06351C35.7655 1.94252 34.8244 4.9 34.7732 6.53924C34.6219 11.3797 40.905 11.35 44.5449 12.9225C48.2973 14.65 46.2994 19.3966 42.1549 19.1848C43.4154 19.1061 45.2199 18.005 45.3011 16.0083C45.375 14.1932 44.4142 12.7858 40.3699 12.0755C34.3496 10.7444 33.7143 8.83844 33.7144 6.53924Z" fill="url(#paint13_linear_123_609)"/>
<path d="M46.5718 4.84509L47.3886 3.30221C46.2692 1.88033 40.8842 -0.539878 36.9816 2.36438C34.2589 4.3906 34.0385 8.26364 36.2556 9.98804C38.585 11.7998 43.705 12.4 44.5146 12.9225C45.2709 13.1646 46.481 14.3142 46.481 15.6755C46.481 16.3713 45.997 19.1292 42.1549 19.1848C39.6741 19.4874 37.0049 19.1 34.6824 17.1882L34.1076 18.126C36.8183 20.6914 40.501 21.0908 42.0036 20.9697C45.6944 20.4857 47.2373 18.2168 47.2373 15.5243C47.0861 10.4116 42.055 11.05 37.7379 9.47375C35.0049 8.4 34.7738 5.16236 37.0421 3.72574C39.7649 2.00134 45.1196 2.87867 46.5718 4.84509Z" fill="url(#paint14_linear_123_609)"/>
<path d="M46.5718 4.84509L47.3886 3.30221C46.2692 1.88033 40.8842 -0.539878 36.9816 2.36438C34.2589 4.3906 34.0385 8.26364 36.2556 9.98804C38.585 11.7998 43.705 12.4 44.5146 12.9225C45.2709 13.1646 46.481 14.3142 46.481 15.6755C46.481 16.3713 45.997 19.1292 42.1549 19.1848C39.6741 19.4874 37.0049 19.1 34.6824 17.1882L34.1076 18.126C36.8183 20.6914 40.501 21.0908 42.0036 20.9697C45.6944 20.4857 47.2373 18.2168 47.2373 15.5243C47.0861 10.4116 42.055 11.05 37.7379 9.47375C35.0049 8.4 34.7738 5.16236 37.0421 3.72574C39.7649 2.00134 45.1196 2.87867 46.5718 4.84509Z" fill="url(#paint15_linear_123_609)" fill-opacity="0.2"/>
<path d="M35.106 16.5226L34.6824 17.1882C37.2539 19.5176 40.6852 19.4803 42.1549 19.1848C38.3852 19.3803 36.1245 17.531 35.106 16.5226Z" fill="url(#paint16_linear_123_609)"/>
<path d="M48.3869 15.3427C48.3869 20.0622 44.3936 21 41.9128 21C46.4507 20.3647 47.2373 17.4302 47.2373 15.3427C47.0861 13.2553 46.155 11.95 43.7885 11.1376C40.0378 9.85012 35.5865 10.058 35.4049 6.7C35.3535 3.25 39.0691 2.57614 41.6708 2.84842C39.3716 2.63665 36.4371 3.78625 36.5581 6.84177C37.0119 9.77627 41.4288 10.0485 43.7885 10.6536C45.6339 11.1074 48.1449 12.0452 48.3869 15.3427Z" fill="url(#paint17_linear_123_609)"/>
<path d="M48.6138 6.53924C49.0374 2.78791 51.4878 1.24503 55.0879 1.06351C50.665 1.94252 49.7239 4.9 49.6726 6.53924C49.5214 11.3797 55.8044 11.35 59.4443 12.9225C63.1968 14.65 61.1989 19.3966 57.0543 19.1848C58.3149 19.1061 60.1194 18.005 60.2006 16.0083C60.2745 14.1932 59.3137 12.7858 55.2694 12.0755C49.2491 10.7444 48.6138 8.83844 48.6138 6.53924Z" fill="url(#paint18_linear_123_609)"/>
<path d="M61.4712 4.84509L62.2881 3.30221C61.1687 1.88033 55.7837 -0.539878 51.8811 2.36438C49.1584 4.3906 48.9379 8.26364 51.155 9.98804C53.4845 11.7998 58.6045 12.4 59.414 12.9225C60.1704 13.1646 61.3805 14.3142 61.3805 15.6755C61.3805 16.3713 60.8964 19.1292 57.0543 19.1848C54.5736 19.4874 51.9044 19.1 49.5819 17.1882L49.0071 18.126C51.7177 20.6914 55.4005 21.0908 56.9031 20.9697C60.5939 20.4857 62.1368 18.2168 62.1368 15.5243C61.9855 10.4116 56.9544 11.05 52.6374 9.47375C49.9044 8.4 49.6733 5.16236 51.9416 3.72574C54.6644 2.00134 60.0191 2.87867 61.4712 4.84509Z" fill="url(#paint19_linear_123_609)"/>
<path d="M61.4712 4.84509L62.2881 3.30221C61.1687 1.88033 55.7837 -0.539878 51.8811 2.36438C49.1584 4.3906 48.9379 8.26364 51.155 9.98804C53.4845 11.7998 58.6045 12.4 59.414 12.9225C60.1704 13.1646 61.3805 14.3142 61.3805 15.6755C61.3805 16.3713 60.8964 19.1292 57.0543 19.1848C54.5736 19.4874 51.9044 19.1 49.5819 17.1882L49.0071 18.126C51.7177 20.6914 55.4005 21.0908 56.9031 20.9697C60.5939 20.4857 62.1368 18.2168 62.1368 15.5243C61.9855 10.4116 56.9544 11.05 52.6374 9.47375C49.9044 8.4 49.6733 5.16236 51.9416 3.72574C54.6644 2.00134 60.0191 2.87867 61.4712 4.84509Z" fill="url(#paint20_linear_123_609)" fill-opacity="0.2"/>
<path d="M50.0054 16.5226L49.5819 17.1882C52.1534 19.5176 55.5846 19.4803 57.0543 19.1848C53.2846 19.3803 51.0239 17.531 50.0054 16.5226Z" fill="url(#paint21_linear_123_609)"/>
<path d="M63.2864 15.3427C63.2864 20.0622 59.293 21 56.8123 21C61.3502 20.3647 62.1368 17.4302 62.1368 15.3427C61.9855 13.2553 61.0545 11.95 58.688 11.1376C54.9373 9.85012 50.4859 10.058 50.3044 6.7C50.2529 3.25 53.9685 2.57614 56.5703 2.84842C54.2711 2.63665 51.3366 3.78625 51.4576 6.84177C51.9114 9.77627 56.3283 10.0485 58.688 10.6536C60.5334 11.1074 63.0444 12.0452 63.2864 15.3427Z" fill="url(#paint22_linear_123_609)"/>
<path d="M70.3666 3.73999L69.8866 8H68.6666L69.6266 0.649984L72.4966 5.39999L75.3766 0.649984L76.3366 8H75.1166L74.6266 3.73999L72.4966 7.35L70.3666 3.73999ZM79.3946 8.1C78.9279 8.1 78.5146 8 78.1546 7.8C77.8013 7.6 77.5279 7.32 77.3346 6.96C77.1413 6.6 77.0446 6.18 77.0446 5.7C77.0446 5.21333 77.1413 4.78999 77.3346 4.42999C77.5346 4.06999 77.8146 3.79332 78.1746 3.59999C78.5346 3.39999 78.9579 3.29999 79.4446 3.29999C79.9313 3.29999 80.3446 3.39332 80.6846 3.57999C81.0246 3.76666 81.2846 4.03666 81.4646 4.38999C81.6513 4.73666 81.7446 5.15666 81.7446 5.64999C81.7446 5.70333 81.7413 5.76 81.7346 5.82C81.7346 5.88 81.7313 5.92333 81.7246 5.95H77.6846V5.20999H80.8046L80.4746 5.67C80.4946 5.62999 80.5146 5.57666 80.5346 5.50999C80.5613 5.43666 80.5746 5.37666 80.5746 5.32999C80.5746 5.08333 80.5246 4.86999 80.4246 4.68999C80.3313 4.50999 80.1979 4.36999 80.0246 4.26999C79.8579 4.16999 79.6613 4.11999 79.4346 4.11999C79.1613 4.11999 78.9279 4.17999 78.7346 4.29999C78.5413 4.41999 78.3946 4.59333 78.2946 4.81999C78.1946 5.04666 78.1413 5.32666 78.1346 5.65999C78.1346 5.99333 78.1846 6.27666 78.2846 6.51C78.3846 6.73666 78.5313 6.91 78.7246 7.03C78.9246 7.15 79.1646 7.21 79.4446 7.21C79.7379 7.21 79.9946 7.15 80.2146 7.03C80.4346 6.91 80.6179 6.72666 80.7646 6.48L81.6946 6.86C81.4546 7.27333 81.1446 7.58333 80.7646 7.79C80.3846 7.99667 79.9279 8.1 79.3946 8.1ZM86.2355 0.199983H87.3255V8H86.2355V0.199983ZM82.4255 5.7C82.4255 5.19333 82.5288 4.76333 82.7355 4.40999C82.9421 4.04999 83.2155 3.77666 83.5555 3.58999C83.9021 3.39666 84.2722 3.29999 84.6655 3.29999C85.0522 3.29999 85.3888 3.39666 85.6755 3.58999C85.9688 3.78332 86.1988 4.05999 86.3655 4.41999C86.5388 4.77333 86.6255 5.19999 86.6255 5.7C86.6255 6.19333 86.5388 6.62 86.3655 6.98C86.1988 7.34 85.9688 7.61667 85.6755 7.81C85.3888 8.00333 85.0522 8.1 84.6655 8.1C84.2722 8.1 83.9021 8.00667 83.5555 7.82C83.2155 7.62667 82.9421 7.35 82.7355 6.99C82.5288 6.63 82.4255 6.2 82.4255 5.7ZM83.5455 5.7C83.5455 6.00666 83.6088 6.27 83.7355 6.49C83.8621 6.71 84.0288 6.87666 84.2355 6.99C84.4488 7.10333 84.6788 7.16 84.9255 7.16C85.1322 7.16 85.3355 7.10333 85.5355 6.99C85.7422 6.87666 85.9088 6.71333 86.0355 6.5C86.1688 6.28 86.2355 6.01333 86.2355 5.7C86.2355 5.38666 86.1688 5.12333 86.0355 4.90999C85.9088 4.68999 85.7422 4.52333 85.5355 4.40999C85.3355 4.29666 85.1322 4.23999 84.9255 4.23999C84.6788 4.23999 84.4488 4.29666 84.2355 4.40999C84.0288 4.52333 83.8621 4.68999 83.7355 4.90999C83.6088 5.12999 83.5455 5.39333 83.5455 5.7ZM88.6242 1.56999C88.6242 1.38332 88.6908 1.22665 88.8242 1.09998C88.9642 0.973318 89.1242 0.909985 89.3042 0.909985C89.4975 0.909985 89.6575 0.973318 89.7842 1.09998C89.9175 1.22665 89.9842 1.38332 89.9842 1.56999C89.9842 1.74999 89.9175 1.90665 89.7842 2.03999C89.6575 2.16665 89.4975 2.22999 89.3042 2.22999C89.1242 2.22999 88.9642 2.16665 88.8242 2.03999C88.6908 1.90665 88.6242 1.74999 88.6242 1.56999ZM88.7742 3.39999H89.8342V8H88.7742V3.39999ZM92.0404 5.7C92.0404 5.99333 92.1038 6.25 92.2304 6.47C92.3571 6.68333 92.5271 6.85333 92.7404 6.98C92.9604 7.10666 93.2038 7.17 93.4704 7.17C93.6904 7.17 93.9004 7.13666 94.1004 7.07C94.3004 7.00333 94.4771 6.91 94.6304 6.79C94.7838 6.67 94.8971 6.53666 94.9704 6.39V7.58C94.8104 7.74 94.5938 7.86667 94.3204 7.96C94.0471 8.05333 93.7471 8.1 93.4204 8.1C92.9471 8.1 92.5204 8 92.1404 7.8C91.7671 7.59333 91.4704 7.31 91.2504 6.95C91.0371 6.58333 90.9304 6.16666 90.9304 5.7C90.9304 5.22666 91.0371 4.80999 91.2504 4.44999C91.4704 4.08999 91.7671 3.80999 92.1404 3.60999C92.5204 3.40332 92.9471 3.29999 93.4204 3.29999C93.7471 3.29999 94.0471 3.34666 94.3204 3.43999C94.5938 3.53332 94.8104 3.65999 94.9704 3.81999V5.00999C94.8971 4.85666 94.7804 4.72333 94.6204 4.60999C94.4671 4.48999 94.2904 4.39666 94.0904 4.32999C93.8904 4.26333 93.6838 4.22999 93.4704 4.22999C93.2038 4.22999 92.9604 4.29333 92.7404 4.41999C92.5271 4.54666 92.3571 4.71999 92.2304 4.93999C92.1038 5.15999 92.0404 5.41333 92.0404 5.7ZM96.8442 6.57C96.8442 6.72333 96.8808 6.85666 96.9542 6.97C97.0275 7.07666 97.1275 7.15666 97.2542 7.21C97.3875 7.26333 97.5375 7.29 97.7042 7.29C97.9175 7.29 98.1109 7.24667 98.2842 7.16C98.4642 7.07333 98.6075 6.94666 98.7142 6.78C98.8275 6.60666 98.8842 6.40666 98.8842 6.18L99.0442 6.78C99.0442 7.07333 98.9575 7.32 98.7842 7.52C98.6175 7.71333 98.4042 7.86 98.1442 7.96C97.8909 8.05333 97.6308 8.1 97.3642 8.1C97.0775 8.1 96.8108 8.04333 96.5642 7.93C96.3175 7.81667 96.1208 7.65 95.9742 7.43C95.8275 7.21 95.7542 6.94333 95.7542 6.63C95.7542 6.18333 95.9108 5.83 96.2242 5.56999C96.5375 5.30333 96.9808 5.16999 97.5542 5.16999C97.8609 5.16999 98.1242 5.20333 98.3442 5.26999C98.5709 5.33666 98.7575 5.41666 98.9042 5.50999C99.0509 5.59666 99.1542 5.67666 99.2142 5.75V6.3C99.0075 6.15333 98.7875 6.04666 98.5542 5.98C98.3209 5.91333 98.0742 5.88 97.8142 5.88C97.5875 5.88 97.4042 5.91 97.2642 5.97C97.1242 6.02333 97.0175 6.1 96.9442 6.2C96.8775 6.3 96.8442 6.42333 96.8442 6.57ZM96.5042 4.59999L96.0642 3.83999C96.2708 3.71332 96.5375 3.58999 96.8642 3.46999C97.1975 3.34999 97.5775 3.28999 98.0042 3.28999C98.3842 3.28999 98.7175 3.34666 99.0042 3.45999C99.2975 3.57332 99.5275 3.73666 99.6942 3.94999C99.8609 4.15666 99.9442 4.41333 99.9442 4.71999V8H98.8842V4.92999C98.8842 4.78333 98.8575 4.66333 98.8042 4.56999C98.7575 4.47666 98.6909 4.39999 98.6042 4.33999C98.5175 4.27999 98.4142 4.23666 98.2942 4.20999C98.1742 4.18333 98.0442 4.16999 97.9042 4.16999C97.6908 4.16999 97.4875 4.19666 97.2942 4.24999C97.1075 4.29666 96.9442 4.35666 96.8042 4.42999C96.6708 4.49666 96.5708 4.55333 96.5042 4.59999ZM101.203 0.199983H102.283V8H101.203V0.199983Z" fill="#A1791C"/>
<path d="M69.9366 17.3125C69.9366 17.8058 70.0466 18.2392 70.2666 18.6125C70.4933 18.9858 70.7866 19.2758 71.1466 19.4825C71.5133 19.6825 71.91 19.7825 72.3366 19.7825C72.67 19.7825 72.97 19.7392 73.2366 19.6525C73.5033 19.5658 73.7433 19.4492 73.9566 19.3025C74.1766 19.1492 74.3666 18.9792 74.5266 18.7925V20.1925C74.2333 20.4325 73.9166 20.6158 73.5766 20.7425C73.2366 20.8692 72.81 20.9325 72.2966 20.9325C71.7833 20.9325 71.3033 20.8458 70.8566 20.6725C70.4166 20.4992 70.0333 20.2492 69.7066 19.9225C69.38 19.5958 69.1233 19.2125 68.9366 18.7725C68.7566 18.3258 68.6666 17.8392 68.6666 17.3125C68.6666 16.7858 68.7566 16.3025 68.9366 15.8625C69.1233 15.4158 69.38 15.0292 69.7066 14.7025C70.0333 14.3758 70.4166 14.1258 70.8566 13.9525C71.3033 13.7792 71.7833 13.6925 72.2966 13.6925C72.81 13.6925 73.2366 13.7558 73.5766 13.8825C73.9166 14.0092 74.2333 14.1925 74.5266 14.4325V15.8325C74.3666 15.6458 74.1766 15.4792 73.9566 15.3325C73.7433 15.1792 73.5033 15.0592 73.2366 14.9725C72.97 14.8858 72.67 14.8425 72.3366 14.8425C71.91 14.8425 71.5133 14.9458 71.1466 15.1525C70.7866 15.3525 70.4933 15.6392 70.2666 16.0125C70.0466 16.3792 69.9366 16.8125 69.9366 17.3125ZM77.8907 20.9125C77.424 20.9125 77.0107 20.8125 76.6507 20.6125C76.2974 20.4125 76.024 20.1325 75.8307 19.7725C75.6374 19.4125 75.5407 18.9925 75.5407 18.5125C75.5407 18.0258 75.6374 17.6025 75.8307 17.2425C76.0307 16.8825 76.3107 16.6058 76.6707 16.4125C77.0307 16.2125 77.454 16.1125 77.9407 16.1125C78.4274 16.1125 78.8407 16.2058 79.1807 16.3925C79.5207 16.5792 79.7807 16.8492 79.9607 17.2025C80.1474 17.5492 80.2407 17.9692 80.2407 18.4625C80.2407 18.5158 80.2374 18.5725 80.2307 18.6325C80.2307 18.6925 80.2274 18.7358 80.2207 18.7625H76.1807V18.0225H79.3007L78.9707 18.4825C78.9907 18.4425 79.0107 18.3892 79.0307 18.3225C79.0574 18.2492 79.0707 18.1892 79.0707 18.1425C79.0707 17.8958 79.0207 17.6825 78.9207 17.5025C78.8274 17.3225 78.694 17.1825 78.5207 17.0825C78.354 16.9825 78.1574 16.9325 77.9307 16.9325C77.6574 16.9325 77.424 16.9925 77.2307 17.1125C77.0374 17.2325 76.8907 17.4058 76.7907 17.6325C76.6907 17.8592 76.6374 18.1392 76.6307 18.4725C76.6307 18.8058 76.6807 19.0892 76.7807 19.3225C76.8807 19.5492 77.0274 19.7225 77.2207 19.8425C77.4207 19.9625 77.6607 20.0225 77.9407 20.0225C78.234 20.0225 78.4907 19.9625 78.7107 19.8425C78.9307 19.7225 79.114 19.5392 79.2607 19.2925L80.1907 19.6725C79.9507 20.0858 79.6407 20.3958 79.2607 20.6025C78.8807 20.8092 78.424 20.9125 77.8907 20.9125ZM84.2316 18.0125C84.2316 17.6725 84.1616 17.4158 84.0216 17.2425C83.8816 17.0692 83.6649 16.9825 83.3716 16.9825C83.1716 16.9825 82.9949 17.0258 82.8416 17.1125C82.6882 17.1925 82.5682 17.3125 82.4816 17.4725C82.3949 17.6258 82.3516 17.8058 82.3516 18.0125V20.8125H81.2716V16.2125H82.3516V16.9225C82.4982 16.6492 82.6849 16.4458 82.9116 16.3125C83.1449 16.1792 83.4216 16.1125 83.7416 16.1125C84.2616 16.1125 84.6582 16.2725 84.9316 16.5925C85.2049 16.9058 85.3416 17.3392 85.3416 17.8925V20.8125H84.2316V18.0125ZM86.0808 16.2125H88.6908V17.1625H86.0808V16.2125ZM86.8508 14.6125H87.9208V20.8125H86.8508V14.6125ZM91.4357 20.9125C90.969 20.9125 90.5557 20.8125 90.1957 20.6125C89.8423 20.4125 89.569 20.1325 89.3756 19.7725C89.1823 19.4125 89.0856 18.9925 89.0856 18.5125C89.0856 18.0258 89.1823 17.6025 89.3756 17.2425C89.5756 16.8825 89.8556 16.6058 90.2157 16.4125C90.5757 16.2125 90.999 16.1125 91.4857 16.1125C91.9723 16.1125 92.3857 16.2058 92.7257 16.3925C93.0657 16.5792 93.3257 16.8492 93.5057 17.2025C93.6923 17.5492 93.7857 17.9692 93.7857 18.4625C93.7857 18.5158 93.7823 18.5725 93.7757 18.6325C93.7757 18.6925 93.7723 18.7358 93.7657 18.7625H89.7256V18.0225H92.8457L92.5157 18.4825C92.5357 18.4425 92.5557 18.3892 92.5757 18.3225C92.6023 18.2492 92.6157 18.1892 92.6157 18.1425C92.6157 17.8958 92.5657 17.6825 92.4657 17.5025C92.3723 17.3225 92.239 17.1825 92.0657 17.0825C91.899 16.9825 91.7023 16.9325 91.4757 16.9325C91.2023 16.9325 90.969 16.9925 90.7757 17.1125C90.5823 17.2325 90.4357 17.4058 90.3357 17.6325C90.2357 17.8592 90.1823 18.1392 90.1757 18.4725C90.1757 18.8058 90.2257 19.0892 90.3257 19.3225C90.4257 19.5492 90.5723 19.7225 90.7657 19.8425C90.9657 19.9625 91.2057 20.0225 91.4857 20.0225C91.779 20.0225 92.0357 19.9625 92.2557 19.8425C92.4757 19.7225 92.659 19.5392 92.8057 19.2925L93.7357 19.6725C93.4957 20.0858 93.1857 20.3958 92.8057 20.6025C92.4257 20.8092 91.969 20.9125 91.4357 20.9125ZM95.8865 16.2125V20.8125H94.8165V16.2125H95.8865ZM97.2565 17.3625C97.1565 17.2825 97.0632 17.2225 96.9765 17.1825C96.8899 17.1425 96.7799 17.1225 96.6465 17.1225C96.4665 17.1225 96.3199 17.1692 96.2065 17.2625C96.0932 17.3558 96.0099 17.4858 95.9565 17.6525C95.9099 17.8125 95.8865 18.0025 95.8865 18.2225L95.5265 18.0125C95.5265 17.6458 95.5932 17.3225 95.7265 17.0425C95.8665 16.7558 96.0432 16.5292 96.2565 16.3625C96.4765 16.1958 96.7032 16.1125 96.9365 16.1125C97.1032 16.1125 97.2599 16.1392 97.4065 16.1925C97.5532 16.2392 97.6765 16.3258 97.7765 16.4525L97.2565 17.3625Z" fill="#A1791C"/>
<defs>
<linearGradient id="paint0_linear_123_609" x1="7.79958" y1="1.19995" x2="7.79958" y2="3.22688" gradientUnits="userSpaceOnUse">
<stop stop-color="#82620F"/>
<stop offset="0.261816" stop-color="#B79843"/>
<stop offset="0.433699" stop-color="#A1791C"/>
<stop offset="0.673294" stop-color="#D7C77B"/>
<stop offset="1" stop-color="#F1EDA7"/>
</linearGradient>
<linearGradient id="paint1_linear_123_609" x1="7.79958" y1="1.19995" x2="7.79958" y2="3.22688" gradientUnits="userSpaceOnUse">
<stop stop-color="#624005"/>
<stop offset="1" stop-color="#B79843"/>
</linearGradient>
<linearGradient id="paint2_linear_123_609" x1="7.79958" y1="1.19995" x2="7.79958" y2="3.22688" gradientUnits="userSpaceOnUse">
<stop stop-color="#624005"/>
<stop offset="1" stop-color="#B79843"/>
</linearGradient>
<linearGradient id="paint3_linear_123_609" x1="7.79958" y1="1.19995" x2="7.79958" y2="3.22688" gradientUnits="userSpaceOnUse">
<stop stop-color="#82620F"/>
<stop offset="0.261816" stop-color="#B79843"/>
<stop offset="0.433699" stop-color="#A1791C"/>
<stop offset="0.673294" stop-color="#D7C77B"/>
<stop offset="1" stop-color="#F1EDA7"/>
</linearGradient>
<linearGradient id="paint4_linear_123_609" x1="7.75403" y1="-22.6469" x2="12.4413" y2="-22.3547" gradientUnits="userSpaceOnUse">
<stop stop-color="#82620F"/>
<stop offset="0.261816" stop-color="#B79843"/>
<stop offset="0.433699" stop-color="#A1791C"/>
<stop offset="0.673294" stop-color="#D7C77B"/>
<stop offset="1" stop-color="#F1EDA7"/>
</linearGradient>
<linearGradient id="paint5_linear_123_609" x1="7.75403" y1="-22.6469" x2="12.4413" y2="-22.3547" gradientUnits="userSpaceOnUse">
<stop stop-color="#82620F"/>
<stop offset="0.261816" stop-color="#B79843"/>
<stop offset="0.433699" stop-color="#A1791C"/>
<stop offset="0.673294" stop-color="#D7C77B"/>
<stop offset="1" stop-color="#F1EDA7"/>
</linearGradient>
<linearGradient id="paint6_linear_123_609" x1="7.75403" y1="3.22681" x2="7.75403" y2="20.7733" gradientUnits="userSpaceOnUse">
<stop stop-color="#82620F"/>
<stop offset="0.261816" stop-color="#B79843"/>
<stop offset="0.433699" stop-color="#A1791C"/>
<stop offset="0.673294" stop-color="#D7C77B"/>
<stop offset="1" stop-color="#F1EDA7"/>
</linearGradient>
<linearGradient id="paint7_linear_123_609" x1="8.64648" y1="17.9296" x2="8.16244" y2="5.16297" gradientUnits="userSpaceOnUse">
<stop stop-color="#82620F"/>
<stop offset="0.261816" stop-color="#B79843"/>
<stop offset="0.433699" stop-color="#A1791C"/>
<stop offset="0.673294" stop-color="#D7C77B"/>
<stop offset="1" stop-color="#F1EDA7"/>
</linearGradient>
<linearGradient id="paint8_linear_123_609" x1="24.5294" y1="1.30005" x2="24.5294" y2="20.813" gradientUnits="userSpaceOnUse">
<stop stop-color="#82620F"/>
<stop offset="0.261816" stop-color="#B79843"/>
<stop offset="0.433699" stop-color="#A1791C"/>
<stop offset="0.673294" stop-color="#D7C77B"/>
<stop offset="1" stop-color="#F1EDA7"/>
</linearGradient>
<linearGradient id="paint9_linear_123_609" x1="24.5294" y1="1.30005" x2="24.5294" y2="20.813" gradientUnits="userSpaceOnUse">
<stop stop-color="#82620F"/>
<stop offset="0.261816" stop-color="#B79843"/>
<stop offset="0.433699" stop-color="#A1791C"/>
<stop offset="0.673294" stop-color="#D7C77B"/>
<stop offset="1" stop-color="#F1EDA7"/>
</linearGradient>
<linearGradient id="paint10_linear_123_609" x1="24.568" y1="4.07828" x2="24.568" y2="20.8457" gradientUnits="userSpaceOnUse">
<stop stop-color="#624005"/>
<stop offset="1" stop-color="#D7C77B"/>
</linearGradient>
<linearGradient id="paint11_linear_123_609" x1="24.5294" y1="1.30005" x2="24.5294" y2="20.813" gradientUnits="userSpaceOnUse">
<stop stop-color="#82620F"/>
<stop offset="0.261816" stop-color="#B79843"/>
<stop offset="0.433699" stop-color="#A1791C"/>
<stop offset="0.673294" stop-color="#D7C77B"/>
<stop offset="1" stop-color="#F1EDA7"/>
</linearGradient>
<linearGradient id="paint12_linear_123_609" x1="24.5294" y1="1.30005" x2="24.5294" y2="20.813" gradientUnits="userSpaceOnUse">
<stop stop-color="#82620F"/>
<stop offset="0.261816" stop-color="#B79843"/>
<stop offset="0.433699" stop-color="#A1791C"/>
<stop offset="0.673294" stop-color="#D7C77B"/>
<stop offset="1" stop-color="#F1EDA7"/>
</linearGradient>
<linearGradient id="paint13_linear_123_609" x1="41.0506" y1="1" x2="41.0506" y2="21" gradientUnits="userSpaceOnUse">
<stop stop-color="#624004"/>
<stop offset="1" stop-color="#936D17"/>
</linearGradient>
<linearGradient id="paint14_linear_123_609" x1="41.0506" y1="1" x2="41.0506" y2="21" gradientUnits="userSpaceOnUse">
<stop stop-color="#D7C77B"/>
<stop offset="1" stop-color="#624005"/>
</linearGradient>
<linearGradient id="paint15_linear_123_609" x1="47.2505" y1="3.36404" x2="48.5967" y2="6.02055" gradientUnits="userSpaceOnUse">
<stop stop-color="#624005"/>
<stop offset="1" stop-color="#D7C77B"/>
</linearGradient>
<linearGradient id="paint16_linear_123_609" x1="37.3527" y1="1.22061" x2="47.3574" y2="3.92552" gradientUnits="userSpaceOnUse">
<stop stop-color="#82620F"/>
<stop offset="1" stop-color="#D7C77B"/>
</linearGradient>
<linearGradient id="paint17_linear_123_609" x1="41.9265" y1="2.79852" x2="41.9265" y2="21" gradientUnits="userSpaceOnUse">
<stop stop-color="#A1791C"/>
<stop offset="1" stop-color="#D7C77B"/>
</linearGradient>
<linearGradient id="paint18_linear_123_609" x1="55.9501" y1="1" x2="55.9501" y2="21" gradientUnits="userSpaceOnUse">
<stop stop-color="#624004"/>
<stop offset="1" stop-color="#936D17"/>
</linearGradient>
<linearGradient id="paint19_linear_123_609" x1="55.9501" y1="1" x2="55.9501" y2="21" gradientUnits="userSpaceOnUse">
<stop stop-color="#D7C77B"/>
<stop offset="1" stop-color="#624005"/>
</linearGradient>
<linearGradient id="paint20_linear_123_609" x1="62.15" y1="3.36404" x2="63.4962" y2="6.02055" gradientUnits="userSpaceOnUse">
<stop stop-color="#624005"/>
<stop offset="1" stop-color="#D7C77B"/>
</linearGradient>
<linearGradient id="paint21_linear_123_609" x1="52.2521" y1="1.22061" x2="62.2569" y2="3.92552" gradientUnits="userSpaceOnUse">
<stop stop-color="#82620F"/>
<stop offset="1" stop-color="#D7C77B"/>
</linearGradient>
<linearGradient id="paint22_linear_123_609" x1="56.826" y1="2.79852" x2="56.826" y2="21" gradientUnits="userSpaceOnUse">
<stop stop-color="#A1791C"/>
<stop offset="1" stop-color="#D7C77B"/>
</linearGradient>
</defs>
</svg>
