<svg width="166" height="34" viewBox="0 0 166 34" fill="none" xmlns="http://www.w3.org/2000/svg">
<path d="M0 5.56303L1.74256 3.91729H23.0889L24.7831 5.56303H0Z" fill="url(#paint0_linear_22_2090)"/>
<path d="M0 5.56303L1.8069e-06 2.31995L1.74256 3.91729L0 5.56303Z" fill="url(#paint1_linear_22_2090)"/>
<path d="M24.7831 5.56303L24.7831 2.31995L23.0889 3.91729L24.7831 5.56303Z" fill="url(#paint2_linear_22_2090)"/>
<path d="M1.8069e-06 2.31995L1.74256 3.91729H23.0889L24.7831 2.31995H1.8069e-06Z" fill="url(#paint3_linear_22_2090)"/>
<path d="M13.6981 33.589L10.8906 33.6374L12.2944 31.8949L13.6981 33.589Z" fill="url(#paint4_linear_22_2090)"/>
<path d="M13.7465 5.56299H10.8906L12.3428 7.11192L13.7465 5.56299Z" fill="url(#paint5_linear_22_2090)"/>
<path d="M10.8906 33.6374L12.2944 31.8949L12.3428 7.11192L10.939 5.61139L10.8906 33.6374Z" fill="url(#paint6_linear_22_2090)"/>
<path d="M13.6981 33.589L12.2944 31.8949L12.3428 7.11192L13.6981 5.61139L13.6981 33.589Z" fill="url(#paint7_linear_22_2090)"/>
<path d="M37.1747 2.47998H41.1923L40.3694 4.80338H37.9976L37.1747 2.47998Z" fill="#B79843"/>
<path d="M40.3694 4.80338L41.1923 2.47998L53.5354 33.7007L50.4376 31.3289L40.3694 4.80338Z" fill="url(#paint8_linear_22_2090)"/>
<path d="M37.9492 4.80338L37.1263 2.47998L24.7832 33.7007L27.8811 31.3289L37.9492 4.80338Z" fill="url(#paint9_linear_22_2090)"/>
<path d="M49.6147 33.7007L50.4376 31.3289L40.3694 4.80338H37.9976L27.8811 31.3289L28.704 33.7007L39.1593 6.44913L49.6147 33.7007Z" fill="url(#paint10_linear_22_2090)"/>
<path d="M49.6147 33.7007L50.4376 31.3289L53.5354 33.7007H49.6147Z" fill="url(#paint11_linear_22_2090)"/>
<path d="M28.704 33.7007L27.8811 31.3289L24.7832 33.7007H28.704Z" fill="url(#paint12_linear_22_2090)"/>
<path d="M53.8555 10.8628C54.5331 4.86066 58.4539 2.39204 64.214 2.10162C57.1373 3.50802 55.6315 8.24 55.5496 10.8628C55.3076 18.6075 65.3604 18.56 71.1843 21.0761C77.1883 23.84 73.9916 31.4346 67.3603 31.0957C69.3772 30.9697 72.2644 29.208 72.3943 26.0133C72.5125 23.1091 70.9752 20.8572 64.5044 19.7208C54.8719 17.591 53.8554 14.5415 53.8555 10.8628Z" fill="url(#paint13_linear_22_2090)"/>
<path d="M74.4273 8.15215L75.7342 5.68353C73.9433 3.40853 65.3273 -0.463804 59.0831 4.183C54.7267 7.42496 54.374 13.6218 57.9214 16.3809C61.6485 19.2797 69.8405 20.24 71.1358 21.0761C72.3459 21.4633 74.2821 23.3027 74.2821 25.4809C74.2821 26.5942 73.5076 31.0067 67.3603 31.0957C63.3911 31.5798 59.1204 30.96 55.4044 27.9011L54.4847 29.4016C58.8217 33.5063 64.7142 34.1452 67.1182 33.9516C73.0236 33.1771 75.4922 29.5468 75.4922 25.2388C75.2502 17.0585 67.2005 18.08 60.2932 15.558C55.9204 13.84 55.5506 8.65977 59.1799 6.36119C63.5363 3.60215 72.1039 5.00587 74.4273 8.15215Z" fill="url(#paint14_linear_22_2090)"/>
<path d="M74.4273 8.15215L75.7342 5.68353C73.9433 3.40853 65.3273 -0.463804 59.0831 4.183C54.7267 7.42496 54.374 13.6218 57.9214 16.3809C61.6485 19.2797 69.8405 20.24 71.1358 21.0761C72.3459 21.4633 74.2821 23.3027 74.2821 25.4809C74.2821 26.5942 73.5076 31.0067 67.3603 31.0957C63.3911 31.5798 59.1204 30.96 55.4044 27.9011L54.4847 29.4016C58.8217 33.5063 64.7142 34.1452 67.1182 33.9516C73.0236 33.1771 75.4922 29.5468 75.4922 25.2388C75.2502 17.0585 67.2005 18.08 60.2932 15.558C55.9204 13.84 55.5506 8.65977 59.1799 6.36119C63.5363 3.60215 72.1039 5.00587 74.4273 8.15215Z" fill="url(#paint15_linear_22_2090)" fill-opacity="0.2"/>
<path d="M56.082 26.8362L55.4044 27.9011C59.5187 31.6282 65.0088 31.5684 67.3603 31.0957C61.3288 31.4084 57.7116 28.4496 56.082 26.8362Z" fill="url(#paint16_linear_22_2090)"/>
<path d="M77.3316 24.9484C77.3316 32.4995 70.9422 34 66.973 34C74.2337 32.9835 75.4922 28.2883 75.4922 24.9484C75.2502 21.6085 73.7605 19.52 69.9741 18.2202C63.9729 16.1602 56.8509 16.4929 56.5604 11.12C56.478 5.6 62.423 4.52183 66.5858 4.95747C62.907 4.61864 58.2118 6.458 58.4054 11.3468C59.1315 16.042 66.1986 16.4777 69.9741 17.4457C72.9268 18.1718 76.9443 19.6724 77.3316 24.9484Z" fill="url(#paint17_linear_22_2090)"/>
<path d="M77.6953 10.8628C78.373 4.86066 82.2937 2.39204 88.0539 2.10162C80.9771 3.50802 79.4714 8.24 79.3894 10.8628C79.1474 18.6075 89.2003 18.56 95.0241 21.0761C101.028 23.84 97.8314 31.4346 91.2001 31.0957C93.217 30.9697 96.1042 29.208 96.2342 26.0133C96.3523 23.1091 94.8151 20.8572 88.3442 19.7208C78.7118 17.591 77.6953 14.5415 77.6953 10.8628Z" fill="url(#paint18_linear_22_2090)"/>
<path d="M98.2671 8.15215L99.5741 5.68353C97.7831 3.40853 89.1671 -0.463804 82.9229 4.183C78.5665 7.42496 78.2139 13.6218 81.7612 16.3809C85.4884 19.2797 93.6803 20.24 94.9757 21.0761C96.1858 21.4633 98.1219 23.3027 98.1219 25.4809C98.1219 26.5942 97.3475 31.0067 91.2001 31.0957C87.2309 31.5798 82.9603 30.96 79.2442 27.9011L78.3245 29.4016C82.6616 33.5063 88.554 34.1452 90.9581 33.9516C96.8634 33.1771 99.3321 29.5468 99.3321 25.2388C99.09 17.0585 91.0403 18.08 84.1331 15.558C79.7602 13.84 79.3904 8.65977 83.0198 6.36119C87.3762 3.60215 95.9437 5.00587 98.2671 8.15215Z" fill="url(#paint19_linear_22_2090)"/>
<path d="M98.2671 8.15215L99.5741 5.68353C97.7831 3.40853 89.1671 -0.463804 82.9229 4.183C78.5665 7.42496 78.2139 13.6218 81.7612 16.3809C85.4884 19.2797 93.6803 20.24 94.9757 21.0761C96.1858 21.4633 98.1219 23.3027 98.1219 25.4809C98.1219 26.5942 97.3475 31.0067 91.2001 31.0957C87.2309 31.5798 82.9603 30.96 79.2442 27.9011L78.3245 29.4016C82.6616 33.5063 88.554 34.1452 90.9581 33.9516C96.8634 33.1771 99.3321 29.5468 99.3321 25.2388C99.09 17.0585 91.0403 18.08 84.1331 15.558C79.7602 13.84 79.3904 8.65977 83.0198 6.36119C87.3762 3.60215 95.9437 5.00587 98.2671 8.15215Z" fill="url(#paint20_linear_22_2090)" fill-opacity="0.2"/>
<path d="M79.9219 26.8362L79.2442 27.9011C83.3586 31.6282 88.8486 31.5684 91.2001 31.0957C85.1686 31.4084 81.5515 28.4496 79.9219 26.8362Z" fill="url(#paint21_linear_22_2090)"/>
<path d="M101.171 24.9484C101.171 32.4995 94.782 34 90.8129 34C98.0735 32.9835 99.3321 28.2883 99.3321 24.9484C99.09 21.6085 97.6003 19.52 93.8139 18.2202C87.8128 16.1602 80.6907 16.4929 80.4002 11.12C80.3179 5.6 86.2629 4.52183 90.4256 4.95747C86.7469 4.61864 82.0517 6.458 82.2453 11.3468C82.9714 16.042 90.0384 16.4777 93.8139 17.4457C96.7666 18.1718 100.784 19.6724 101.171 24.9484Z" fill="url(#paint22_linear_22_2090)"/>
<path d="M112.498 6.18398L111.73 13H109.778L111.314 1.23997L115.906 8.83999L120.514 1.23997L122.05 13H120.098L119.314 6.18398L115.906 11.96L112.498 6.18398ZM126.943 13.16C126.196 13.16 125.535 13 124.959 12.68C124.393 12.36 123.956 11.912 123.647 11.336C123.337 10.76 123.183 10.088 123.183 9.31999C123.183 8.54132 123.337 7.86399 123.647 7.28799C123.967 6.71199 124.415 6.26932 124.991 5.95998C125.567 5.63998 126.244 5.47998 127.023 5.47998C127.801 5.47998 128.463 5.62932 129.007 5.92798C129.551 6.22665 129.967 6.65865 130.255 7.22399C130.553 7.77866 130.703 8.45066 130.703 9.23999C130.703 9.32533 130.697 9.41599 130.687 9.51199C130.687 9.60799 130.681 9.67733 130.671 9.71999H124.207V8.53599H129.199L128.671 9.27199C128.703 9.20799 128.735 9.12266 128.767 9.01599C128.809 8.89866 128.831 8.80266 128.831 8.72799C128.831 8.33332 128.751 7.99199 128.591 7.70399C128.441 7.41599 128.228 7.19199 127.951 7.03199C127.684 6.87199 127.369 6.79199 127.007 6.79199C126.569 6.79199 126.196 6.88799 125.887 7.07999C125.577 7.27199 125.343 7.54932 125.183 7.91199C125.023 8.27466 124.937 8.72266 124.927 9.25599C124.927 9.78933 125.007 10.2427 125.167 10.616C125.327 10.9787 125.561 11.256 125.871 11.448C126.191 11.64 126.575 11.736 127.023 11.736C127.492 11.736 127.903 11.64 128.255 11.448C128.607 11.256 128.9 10.9627 129.135 10.568L130.623 11.176C130.239 11.8373 129.743 12.3333 129.135 12.664C128.527 12.9947 127.796 13.16 126.943 13.16ZM137.888 0.519973H139.632V13H137.888V0.519973ZM131.792 9.31999C131.792 8.50932 131.957 7.82132 132.288 7.25599C132.619 6.67999 133.056 6.24265 133.6 5.94398C134.155 5.63465 134.747 5.47998 135.376 5.47998C135.995 5.47998 136.533 5.63465 136.992 5.94398C137.461 6.25332 137.829 6.69599 138.096 7.27199C138.373 7.83732 138.512 8.51999 138.512 9.31999C138.512 10.1093 138.373 10.792 138.096 11.368C137.829 11.944 137.461 12.3867 136.992 12.696C136.533 13.0053 135.995 13.16 135.376 13.16C134.747 13.16 134.155 13.0107 133.6 12.712C133.056 12.4027 132.619 11.96 132.288 11.384C131.957 10.808 131.792 10.12 131.792 9.31999ZM133.584 9.31999C133.584 9.81066 133.685 10.232 133.888 10.584C134.091 10.936 134.357 11.2027 134.688 11.384C135.029 11.5653 135.397 11.656 135.792 11.656C136.123 11.656 136.448 11.5653 136.768 11.384C137.099 11.2027 137.365 10.9413 137.568 10.6C137.781 10.248 137.888 9.82133 137.888 9.31999C137.888 8.81866 137.781 8.39732 137.568 8.05599C137.365 7.70399 137.099 7.43732 136.768 7.25599C136.448 7.07465 136.123 6.98399 135.792 6.98399C135.397 6.98399 135.029 7.07465 134.688 7.25599C134.357 7.43732 134.091 7.70399 133.888 8.05599C133.685 8.40799 133.584 8.82932 133.584 9.31999ZM141.71 2.71198C141.71 2.41331 141.817 2.16264 142.03 1.95998C142.254 1.75731 142.51 1.65597 142.798 1.65597C143.107 1.65597 143.363 1.75731 143.566 1.95998C143.779 2.16264 143.886 2.41331 143.886 2.71198C143.886 2.99998 143.779 3.25065 143.566 3.46398C143.363 3.66665 143.107 3.76798 142.798 3.76798C142.51 3.76798 142.254 3.66665 142.03 3.46398C141.817 3.25065 141.71 2.99998 141.71 2.71198ZM141.95 5.63998H143.646V13H141.95V5.63998ZM147.176 9.31999C147.176 9.78933 147.277 10.2 147.48 10.552C147.683 10.8933 147.955 11.1653 148.296 11.368C148.648 11.5707 149.037 11.672 149.464 11.672C149.816 11.672 150.152 11.6187 150.472 11.512C150.792 11.4053 151.075 11.256 151.32 11.064C151.565 10.872 151.747 10.6587 151.864 10.424V12.328C151.608 12.584 151.261 12.7867 150.824 12.936C150.387 13.0853 149.907 13.16 149.384 13.16C148.627 13.16 147.944 13 147.336 12.68C146.739 12.3493 146.264 11.896 145.912 11.32C145.571 10.7333 145.4 10.0667 145.4 9.31999C145.4 8.56266 145.571 7.89599 145.912 7.31999C146.264 6.74399 146.739 6.29599 147.336 5.97598C147.944 5.64532 148.627 5.47998 149.384 5.47998C149.907 5.47998 150.387 5.55465 150.824 5.70398C151.261 5.85332 151.608 6.05598 151.864 6.31199V8.21599C151.747 7.97066 151.56 7.75732 151.304 7.57599C151.059 7.38399 150.776 7.23465 150.456 7.12799C150.136 7.02132 149.805 6.96799 149.464 6.96799C149.037 6.96799 148.648 7.06932 148.296 7.27199C147.955 7.47465 147.683 7.75199 147.48 8.10399C147.277 8.45599 147.176 8.86132 147.176 9.31999ZM154.862 10.712C154.862 10.9573 154.921 11.1707 155.038 11.352C155.155 11.5227 155.315 11.6507 155.518 11.736C155.731 11.8213 155.971 11.864 156.238 11.864C156.579 11.864 156.889 11.7947 157.166 11.656C157.454 11.5173 157.683 11.3147 157.854 11.048C158.035 10.7707 158.126 10.4507 158.126 10.088L158.382 11.048C158.382 11.5173 158.243 11.912 157.966 12.232C157.699 12.5413 157.358 12.776 156.942 12.936C156.537 13.0853 156.121 13.16 155.694 13.16C155.235 13.16 154.809 13.0693 154.414 12.888C154.019 12.7067 153.705 12.44 153.47 12.088C153.235 11.736 153.118 11.3093 153.118 10.808C153.118 10.0933 153.369 9.52799 153.87 9.11199C154.371 8.68532 155.081 8.47199 155.998 8.47199C156.489 8.47199 156.91 8.52532 157.262 8.63199C157.625 8.73866 157.923 8.86666 158.158 9.01599C158.393 9.15466 158.558 9.28266 158.654 9.39999V10.28C158.323 10.0453 157.971 9.87466 157.598 9.76799C157.225 9.66133 156.83 9.60799 156.414 9.60799C156.051 9.60799 155.758 9.65599 155.534 9.75199C155.31 9.83733 155.139 9.95999 155.022 10.12C154.915 10.28 154.862 10.4773 154.862 10.712ZM154.318 7.55999L153.614 6.34399C153.945 6.14132 154.371 5.94398 154.894 5.75198C155.427 5.55998 156.035 5.46398 156.718 5.46398C157.326 5.46398 157.859 5.55465 158.318 5.73598C158.787 5.91732 159.155 6.17865 159.422 6.51999C159.689 6.85065 159.822 7.26132 159.822 7.75199V13H158.126V8.08799C158.126 7.85332 158.083 7.66132 157.998 7.51199C157.923 7.36265 157.817 7.23999 157.678 7.14399C157.539 7.04799 157.374 6.97865 157.182 6.93599C156.99 6.89332 156.782 6.87199 156.558 6.87199C156.217 6.87199 155.891 6.91465 155.582 6.99999C155.283 7.07465 155.022 7.17065 154.798 7.28799C154.585 7.39465 154.425 7.48532 154.318 7.55999ZM161.837 0.519973H163.565V13H161.837V0.519973Z" fill="#A1791C"/>
<path d="M111.81 27.9C111.81 28.6893 111.986 29.3827 112.338 29.98C112.701 30.5773 113.17 31.0413 113.746 31.372C114.333 31.692 114.967 31.852 115.65 31.852C116.183 31.852 116.663 31.7827 117.09 31.644C117.517 31.5053 117.901 31.3187 118.242 31.084C118.594 30.8387 118.898 30.5667 119.154 30.268V32.508C118.685 32.892 118.178 33.1853 117.634 33.388C117.09 33.5907 116.407 33.692 115.586 33.692C114.765 33.692 113.997 33.5533 113.282 33.276C112.578 32.9987 111.965 32.5987 111.442 32.076C110.919 31.5533 110.509 30.94 110.21 30.236C109.922 29.5213 109.778 28.7427 109.778 27.9C109.778 27.0573 109.922 26.284 110.21 25.58C110.509 24.8653 110.919 24.2466 111.442 23.724C111.965 23.2013 112.578 22.8013 113.282 22.524C113.997 22.2466 114.765 22.108 115.586 22.108C116.407 22.108 117.09 22.2093 117.634 22.412C118.178 22.6146 118.685 22.908 119.154 23.292V25.532C118.898 25.2333 118.594 24.9666 118.242 24.732C117.901 24.4866 117.517 24.2946 117.09 24.156C116.663 24.0173 116.183 23.948 115.65 23.948C114.967 23.948 114.333 24.1133 113.746 24.444C113.17 24.764 112.701 25.2226 112.338 25.82C111.986 26.4067 111.81 27.1 111.81 27.9ZM124.536 33.66C123.79 33.66 123.128 33.5 122.552 33.18C121.987 32.86 121.55 32.412 121.24 31.836C120.931 31.26 120.776 30.588 120.776 29.82C120.776 29.0413 120.931 28.364 121.24 27.788C121.56 27.212 122.008 26.7693 122.584 26.46C123.16 26.14 123.838 25.98 124.616 25.98C125.395 25.98 126.056 26.1293 126.6 26.428C127.144 26.7267 127.56 27.1587 127.848 27.724C128.147 28.2787 128.296 28.9507 128.296 29.74C128.296 29.8253 128.291 29.916 128.28 30.012C128.28 30.108 128.275 30.1773 128.264 30.22H121.8V29.036H126.792L126.264 29.772C126.296 29.708 126.328 29.6227 126.36 29.516C126.403 29.3987 126.424 29.3027 126.424 29.228C126.424 28.8333 126.344 28.492 126.184 28.204C126.035 27.916 125.822 27.692 125.544 27.532C125.278 27.372 124.963 27.292 124.6 27.292C124.163 27.292 123.79 27.388 123.48 27.58C123.171 27.772 122.936 28.0493 122.776 28.412C122.616 28.7747 122.531 29.2227 122.52 29.756C122.52 30.2893 122.6 30.7427 122.76 31.116C122.92 31.4787 123.155 31.756 123.464 31.948C123.784 32.14 124.168 32.236 124.616 32.236C125.086 32.236 125.496 32.14 125.848 31.948C126.2 31.756 126.494 31.4627 126.728 31.068L128.216 31.676C127.832 32.3373 127.336 32.8333 126.728 33.164C126.12 33.4947 125.39 33.66 124.536 33.66ZM134.682 29.02C134.682 28.476 134.57 28.0653 134.346 27.788C134.122 27.5107 133.775 27.372 133.306 27.372C132.986 27.372 132.703 27.4413 132.458 27.58C132.213 27.708 132.021 27.9 131.882 28.156C131.743 28.4013 131.674 28.6893 131.674 29.02V33.5H129.946V26.14H131.674V27.276C131.909 26.8387 132.207 26.5133 132.57 26.3C132.943 26.0867 133.386 25.98 133.898 25.98C134.73 25.98 135.365 26.236 135.802 26.748C136.239 27.2493 136.458 27.9427 136.458 28.828V33.5H134.682V29.02ZM137.641 26.14H141.817V27.66H137.641V26.14ZM138.873 23.58H140.585V33.5H138.873V23.58ZM146.208 33.66C145.462 33.66 144.8 33.5 144.224 33.18C143.659 32.86 143.222 32.412 142.912 31.836C142.603 31.26 142.448 30.588 142.448 29.82C142.448 29.0413 142.603 28.364 142.912 27.788C143.232 27.212 143.68 26.7693 144.256 26.46C144.832 26.14 145.51 25.98 146.288 25.98C147.067 25.98 147.728 26.1293 148.272 26.428C148.816 26.7267 149.232 27.1587 149.52 27.724C149.819 28.2787 149.968 28.9507 149.968 29.74C149.968 29.8253 149.963 29.916 149.952 30.012C149.952 30.108 149.947 30.1773 149.936 30.22H143.472V29.036H148.464L147.936 29.772C147.968 29.708 148 29.6227 148.032 29.516C148.075 29.3987 148.096 29.3027 148.096 29.228C148.096 28.8333 148.016 28.492 147.856 28.204C147.707 27.916 147.494 27.692 147.216 27.532C146.95 27.372 146.635 27.292 146.272 27.292C145.835 27.292 145.462 27.388 145.152 27.58C144.843 27.772 144.608 28.0493 144.448 28.412C144.288 28.7747 144.203 29.2227 144.192 29.756C144.192 30.2893 144.272 30.7427 144.432 31.116C144.592 31.4787 144.827 31.756 145.136 31.948C145.456 32.14 145.84 32.236 146.288 32.236C146.758 32.236 147.168 32.14 147.52 31.948C147.872 31.756 148.166 31.4627 148.4 31.068L149.888 31.676C149.504 32.3373 149.008 32.8333 148.4 33.164C147.792 33.4947 147.062 33.66 146.208 33.66ZM153.33 26.14V33.5H151.618V26.14H153.33ZM155.522 27.98C155.362 27.852 155.212 27.756 155.074 27.692C154.935 27.628 154.759 27.596 154.546 27.596C154.258 27.596 154.023 27.6707 153.842 27.82C153.66 27.9693 153.527 28.1773 153.442 28.444C153.367 28.7 153.33 29.004 153.33 29.356L152.754 29.02C152.754 28.4333 152.86 27.916 153.074 27.468C153.298 27.0093 153.58 26.6467 153.922 26.38C154.274 26.1133 154.636 25.98 155.01 25.98C155.276 25.98 155.527 26.0227 155.762 26.108C155.996 26.1827 156.194 26.3213 156.354 26.524L155.522 27.98Z" fill="#A1791C"/>
<defs>
<linearGradient id="paint0_linear_22_2090" x1="12.3915" y1="2.31995" x2="12.3915" y2="5.56303" gradientUnits="userSpaceOnUse">
<stop stop-color="#82620F"/>
<stop offset="0.261816" stop-color="#B79843"/>
<stop offset="0.433699" stop-color="#A1791C"/>
<stop offset="0.673294" stop-color="#D7C77B"/>
<stop offset="1" stop-color="#F1EDA7"/>
</linearGradient>
<linearGradient id="paint1_linear_22_2090" x1="12.3915" y1="2.31995" x2="12.3915" y2="5.56303" gradientUnits="userSpaceOnUse">
<stop stop-color="#624005"/>
<stop offset="1" stop-color="#B79843"/>
</linearGradient>
<linearGradient id="paint2_linear_22_2090" x1="12.3915" y1="2.31995" x2="12.3915" y2="5.56303" gradientUnits="userSpaceOnUse">
<stop stop-color="#624005"/>
<stop offset="1" stop-color="#B79843"/>
</linearGradient>
<linearGradient id="paint3_linear_22_2090" x1="12.3915" y1="2.31995" x2="12.3915" y2="5.56303" gradientUnits="userSpaceOnUse">
<stop stop-color="#82620F"/>
<stop offset="0.261816" stop-color="#B79843"/>
<stop offset="0.433699" stop-color="#A1791C"/>
<stop offset="0.673294" stop-color="#D7C77B"/>
<stop offset="1" stop-color="#F1EDA7"/>
</linearGradient>
<linearGradient id="paint4_linear_22_2090" x1="12.3186" y1="-35.8349" x2="19.8182" y2="-35.3674" gradientUnits="userSpaceOnUse">
<stop stop-color="#82620F"/>
<stop offset="0.261816" stop-color="#B79843"/>
<stop offset="0.433699" stop-color="#A1791C"/>
<stop offset="0.673294" stop-color="#D7C77B"/>
<stop offset="1" stop-color="#F1EDA7"/>
</linearGradient>
<linearGradient id="paint5_linear_22_2090" x1="12.3186" y1="-35.8349" x2="19.8182" y2="-35.3674" gradientUnits="userSpaceOnUse">
<stop stop-color="#82620F"/>
<stop offset="0.261816" stop-color="#B79843"/>
<stop offset="0.433699" stop-color="#A1791C"/>
<stop offset="0.673294" stop-color="#D7C77B"/>
<stop offset="1" stop-color="#F1EDA7"/>
</linearGradient>
<linearGradient id="paint6_linear_22_2090" x1="12.3186" y1="5.56299" x2="12.3186" y2="33.6374" gradientUnits="userSpaceOnUse">
<stop stop-color="#82620F"/>
<stop offset="0.261816" stop-color="#B79843"/>
<stop offset="0.433699" stop-color="#A1791C"/>
<stop offset="0.673294" stop-color="#D7C77B"/>
<stop offset="1" stop-color="#F1EDA7"/>
</linearGradient>
<linearGradient id="paint7_linear_22_2090" x1="13.7465" y1="29.0874" x2="12.972" y2="8.66086" gradientUnits="userSpaceOnUse">
<stop stop-color="#82620F"/>
<stop offset="0.261816" stop-color="#B79843"/>
<stop offset="0.433699" stop-color="#A1791C"/>
<stop offset="0.673294" stop-color="#D7C77B"/>
<stop offset="1" stop-color="#F1EDA7"/>
</linearGradient>
<linearGradient id="paint8_linear_22_2090" x1="39.1593" y1="2.47998" x2="39.1593" y2="33.7007" gradientUnits="userSpaceOnUse">
<stop stop-color="#82620F"/>
<stop offset="0.261816" stop-color="#B79843"/>
<stop offset="0.433699" stop-color="#A1791C"/>
<stop offset="0.673294" stop-color="#D7C77B"/>
<stop offset="1" stop-color="#F1EDA7"/>
</linearGradient>
<linearGradient id="paint9_linear_22_2090" x1="39.1593" y1="2.47998" x2="39.1593" y2="33.7007" gradientUnits="userSpaceOnUse">
<stop stop-color="#82620F"/>
<stop offset="0.261816" stop-color="#B79843"/>
<stop offset="0.433699" stop-color="#A1791C"/>
<stop offset="0.673294" stop-color="#D7C77B"/>
<stop offset="1" stop-color="#F1EDA7"/>
</linearGradient>
<linearGradient id="paint10_linear_22_2090" x1="39.221" y1="6.92514" x2="39.221" y2="33.753" gradientUnits="userSpaceOnUse">
<stop stop-color="#624005"/>
<stop offset="1" stop-color="#D7C77B"/>
</linearGradient>
<linearGradient id="paint11_linear_22_2090" x1="39.1593" y1="2.47998" x2="39.1593" y2="33.7007" gradientUnits="userSpaceOnUse">
<stop stop-color="#82620F"/>
<stop offset="0.261816" stop-color="#B79843"/>
<stop offset="0.433699" stop-color="#A1791C"/>
<stop offset="0.673294" stop-color="#D7C77B"/>
<stop offset="1" stop-color="#F1EDA7"/>
</linearGradient>
<linearGradient id="paint12_linear_22_2090" x1="39.1593" y1="2.47998" x2="39.1593" y2="33.7007" gradientUnits="userSpaceOnUse">
<stop stop-color="#82620F"/>
<stop offset="0.261816" stop-color="#B79843"/>
<stop offset="0.433699" stop-color="#A1791C"/>
<stop offset="0.673294" stop-color="#D7C77B"/>
<stop offset="1" stop-color="#F1EDA7"/>
</linearGradient>
<linearGradient id="paint13_linear_22_2090" x1="65.5935" y1="2" x2="65.5935" y2="34" gradientUnits="userSpaceOnUse">
<stop stop-color="#624004"/>
<stop offset="1" stop-color="#936D17"/>
</linearGradient>
<linearGradient id="paint14_linear_22_2090" x1="65.5935" y1="2" x2="65.5935" y2="34" gradientUnits="userSpaceOnUse">
<stop stop-color="#D7C77B"/>
<stop offset="1" stop-color="#624005"/>
</linearGradient>
<linearGradient id="paint15_linear_22_2090" x1="75.5134" y1="5.78246" x2="77.6672" y2="10.0329" gradientUnits="userSpaceOnUse">
<stop stop-color="#624005"/>
<stop offset="1" stop-color="#D7C77B"/>
</linearGradient>
<linearGradient id="paint16_linear_22_2090" x1="59.6768" y1="2.35297" x2="75.6843" y2="6.68083" gradientUnits="userSpaceOnUse">
<stop stop-color="#82620F"/>
<stop offset="1" stop-color="#D7C77B"/>
</linearGradient>
<linearGradient id="paint17_linear_22_2090" x1="66.9949" y1="4.87763" x2="66.9949" y2="34" gradientUnits="userSpaceOnUse">
<stop stop-color="#A1791C"/>
<stop offset="1" stop-color="#D7C77B"/>
</linearGradient>
<linearGradient id="paint18_linear_22_2090" x1="89.4334" y1="2" x2="89.4334" y2="34" gradientUnits="userSpaceOnUse">
<stop stop-color="#624004"/>
<stop offset="1" stop-color="#936D17"/>
</linearGradient>
<linearGradient id="paint19_linear_22_2090" x1="89.4334" y1="2" x2="89.4334" y2="34" gradientUnits="userSpaceOnUse">
<stop stop-color="#D7C77B"/>
<stop offset="1" stop-color="#624005"/>
</linearGradient>
<linearGradient id="paint20_linear_22_2090" x1="99.3532" y1="5.78246" x2="101.507" y2="10.0329" gradientUnits="userSpaceOnUse">
<stop stop-color="#624005"/>
<stop offset="1" stop-color="#D7C77B"/>
</linearGradient>
<linearGradient id="paint21_linear_22_2090" x1="83.5166" y1="2.35297" x2="99.5242" y2="6.68083" gradientUnits="userSpaceOnUse">
<stop stop-color="#82620F"/>
<stop offset="1" stop-color="#D7C77B"/>
</linearGradient>
<linearGradient id="paint22_linear_22_2090" x1="90.8347" y1="4.87763" x2="90.8347" y2="34" gradientUnits="userSpaceOnUse">
<stop stop-color="#A1791C"/>
<stop offset="1" stop-color="#D7C77B"/>
</linearGradient>
</defs>
</svg>
