<svg width="24" height="24" viewBox="0 0 24 24" fill="none" xmlns="http://www.w3.org/2000/svg">
<path fill-rule="evenodd" clip-rule="evenodd" d="M3.5 4C2.39543 4 1.5 4.89543 1.5 6V17C1.5 18.1046 2.39543 19 3.5 19H20.5C21.6046 19 22.5 18.1046 22.5 17V6C22.5 4.89543 21.6046 4 20.5 4H3.5ZM20.3533 6.47434C20.1242 6.05353 19.5935 5.89609 19.168 6.12268L11.9995 9.94022L4.83102 6.12268C4.40554 5.89609 3.87488 6.05353 3.64577 6.47434C3.41666 6.89515 3.57586 7.41998 4.00135 7.64657L11.5847 11.685C11.8437 11.8229 12.1554 11.8229 12.4144 11.685L19.9977 7.64657C20.4232 7.41998 20.5824 6.89515 20.3533 6.47434Z" fill="white"/>
</svg>
